  0
SECTION
  2
HEADER
  9
$ACADVER
  1
AC1009
  0
ENDSEC
  0
SECTION
  2
TABLES
  0
TABLE
  2
LAYER
 70
3
  0
LAYER
  2
CIRCUIT
 70
0
 62
7
  6
CONTINUOUS
  0
LAYER
  2
LABELS
 70
0
 62
3
  6
CONTINUOUS
  0
LAYER
  2
CURRENT
 70
0
 62
4
  6
CONTINUOUS
  0
ENDTAB
  0
ENDSEC
  0
SECTION
  2
ENTITIES
  0
LINE
  8
CIRCUIT
 10
0.0000
 20
0.0000
 30
0.0
 11
0.0000
 21
7.6000
 31
0.0
  0
LINE
  8
CIRCUIT
 10
4.0000
 20
7.6000
 30
0.0
 11
-4.0000
 21
7.6000
 31
0.0
  0
LINE
  8
CIRCUIT
 10
2.4000
 20
10.0000
 30
0.0
 11
-2.4000
 21
10.0000
 31
0.0
  0
LINE
  8
CIRCUIT
 10
0.0000
 20
10.0000
 30
0.0
 11
0.0000
 21
20.0000
 31
0.0
  0
TEXT
  8
LABELS
 10
-3.0000
 20
10.0000
 30
0.0
 40
1.8000
  1
5  0.1 \, V
  0
TEXT
  8
CURRENT
 10
1.5000
 20
10.0000
 30
0.0
 40
1.5000
  1
0.2  0.01 \, A
  0
LINE
  8
CIRCUIT
 10
0.0000
 20
20.0000
 30
0.0
 11
20.0000
 21
20.0000
 31
0.0
  0
LINE
  8
CIRCUIT
 10
20.0000
 20
20.0000
 30
0.0
 11
25.0000
 21
20.0000
 31
0.0
  0
LINE
  8
CIRCUIT
 10
25.0000
 20
20.0000
 30
0.0
 11
25.0000
 21
16.0000
 31
0.0
  0
POLYLINE
  8
CIRCUIT
 66
1
 10
0.0
 20
0.0
 30
0.0
  0
VERTEX
  8
CIRCUIT
 10
28.0000
 20
15.0000
 30
0.0
  0
VERTEX
  8
CIRCUIT
 10
22.0000
 20
13.0000
 30
0.0
  0
VERTEX
  8
CIRCUIT
 10
28.0000
 20
11.0000
 30
0.0
  0
VERTEX
  8
CIRCUIT
 10
22.0000
 20
9.0000
 30
0.0
  0
VERTEX
  8
CIRCUIT
 10
28.0000
 20
7.0000
 30
0.0
  0
VERTEX
  8
CIRCUIT
 10
22.0000
 20
5.0000
 30
0.0
  0
SEQEND
  0
LINE
  8
CIRCUIT
 10
25.0000
 20
4.0000
 30
0.0
 11
25.0000
 21
0.0000
 31
0.0
  0
TEXT
  8
LABELS
 10
28.0000
 20
10.0000
 30
0.0
 40
1.8000
  1
33
  0
LINE
  8
CIRCUIT
 10
25.0000
 20
0.0000
 30
0.0
 11
0.0000
 21
0.0000
 31
0.0
  0
LINE
  8
CIRCUIT
 10
25.0000
 20
20.0000
 30
0.0
 11
45.0000
 21
20.0000
 31
0.0
  0
LINE
  8
CIRCUIT
 10
45.0000
 20
20.0000
 30
0.0
 11
45.0000
 21
16.0000
 31
0.0
  0
POLYLINE
  8
CIRCUIT
 66
1
 10
0.0
 20
0.0
 30
0.0
  0
VERTEX
  8
CIRCUIT
 10
48.0000
 20
15.0000
 30
0.0
  0
VERTEX
  8
CIRCUIT
 10
42.0000
 20
13.0000
 30
0.0
  0
VERTEX
  8
CIRCUIT
 10
48.0000
 20
11.0000
 30
0.0
  0
VERTEX
  8
CIRCUIT
 10
42.0000
 20
9.0000
 30
0.0
  0
VERTEX
  8
CIRCUIT
 10
48.0000
 20
7.0000
 30
0.0
  0
VERTEX
  8
CIRCUIT
 10
42.0000
 20
5.0000
 30
0.0
  0
SEQEND
  0
LINE
  8
CIRCUIT
 10
45.0000
 20
4.0000
 30
0.0
 11
45.0000
 21
0.0000
 31
0.0
  0
TEXT
  8
LABELS
 10
48.0000
 20
10.0000
 30
0.0
 40
1.8000
  1
100
  0
LINE
  8
CIRCUIT
 10
45.0000
 20
0.0000
 30
0.0
 11
25.0000
 21
0.0000
 31
0.0
  0
LINE
  8
CIRCUIT
 10
25.0000
 20
20.0000
 30
0.0
 11
27.5000
 21
35.0000
 31
0.0
  0
LINE
  8
CIRCUIT
 10
27.5000
 20
35.0000
 30
0.0
 11
19.2500
 21
35.0000
 31
0.0
  0
POLYLINE
  8
CIRCUIT
 66
1
 10
0.0
 20
0.0
 30
0.0
  0
VERTEX
  8
CIRCUIT
 10
8.2500
 20
35.0000
 30
0.0
  0
VERTEX
  8
CIRCUIT
 10
8.6687
 20
32.8952
 30
0.0
  0
VERTEX
  8
CIRCUIT
 10
9.8609
 20
31.1109
 30
0.0
  0
VERTEX
  8
CIRCUIT
 10
11.6452
 20
29.9187
 30
0.0
  0
VERTEX
  8
CIRCUIT
 10
13.7500
 20
29.5000
 30
0.0
  0
VERTEX
  8
CIRCUIT
 10
15.8548
 20
29.9187
 30
0.0
  0
VERTEX
  8
CIRCUIT
 10
17.6391
 20
31.1109
 30
0.0
  0
VERTEX
  8
CIRCUIT
 10
18.8313
 20
32.8952
 30
0.0
  0
VERTEX
  8
CIRCUIT
 10
19.2500
 20
35.0000
 30
0.0
  0
VERTEX
  8
CIRCUIT
 10
18.8313
 20
37.1048
 30
0.0
  0
VERTEX
  8
CIRCUIT
 10
17.6391
 20
38.8891
 30
0.0
  0
VERTEX
  8
CIRCUIT
 10
15.8548
 20
40.0813
 30
0.0
  0
VERTEX
  8
CIRCUIT
 10
13.7500
 20
40.5000
 30
0.0
  0
VERTEX
  8
CIRCUIT
 10
11.6452
 20
40.0813
 30
0.0
  0
VERTEX
  8
CIRCUIT
 10
9.8609
 20
38.8891
 30
0.0
  0
VERTEX
  8
CIRCUIT
 10
8.6687
 20
37.1048
 30
0.0
  0
VERTEX
  8
CIRCUIT
 10
8.2500
 20
35.0000
 30
0.0
  0
SEQEND
  0
LINE
  8
CIRCUIT
 10
8.2500
 20
35.0000
 30
0.0
 11
0.0000
 21
35.0000
 31
0.0
  0
TEXT
  8
LABELS
 10
13.7500
 20
32.0000
 30
0.0
 40
1.8000
  1
4.97  0.1 \, V
  0
LINE
  8
CIRCUIT
 10
0.0000
 20
35.0000
 30
0.0
 11
25.0000
 21
-0.0000
 31
0.0
  0
LINE
  8
CIRCUIT
 10
45.0000
 20
20.0000
 30
0.0
 11
70.0000
 21
20.0000
 31
0.0
  0
LINE
  8
CIRCUIT
 10
70.0000
 20
20.0000
 30
0.0
 11
70.0000
 21
14.0000
 31
0.0
  0
POLYLINE
  8
CIRCUIT
 66
1
 10
0.0
 20
0.0
 30
0.0
  0
VERTEX
  8
CIRCUIT
 10
70.0000
 20
6.0000
 30
0.0
  0
VERTEX
  8
CIRCUIT
 10
71.5307
 20
6.3045
 30
0.0
  0
VERTEX
  8
CIRCUIT
 10
72.8284
 20
7.1716
 30
0.0
  0
VERTEX
  8
CIRCUIT
 10
73.6955
 20
8.4693
 30
0.0
  0
VERTEX
  8
CIRCUIT
 10
74.0000
 20
10.0000
 30
0.0
  0
VERTEX
  8
CIRCUIT
 10
73.6955
 20
11.5307
 30
0.0
  0
VERTEX
  8
CIRCUIT
 10
72.8284
 20
12.8284
 30
0.0
  0
VERTEX
  8
CIRCUIT
 10
71.5307
 20
13.6955
 30
0.0
  0
VERTEX
  8
CIRCUIT
 10
70.0000
 20
14.0000
 30
0.0
  0
VERTEX
  8
CIRCUIT
 10
68.4693
 20
13.6955
 30
0.0
  0
VERTEX
  8
CIRCUIT
 10
67.1716
 20
12.8284
 30
0.0
  0
VERTEX
  8
CIRCUIT
 10
66.3045
 20
11.5307
 30
0.0
  0
VERTEX
  8
CIRCUIT
 10
66.0000
 20
10.0000
 30
0.0
  0
VERTEX
  8
CIRCUIT
 10
66.3045
 20
8.4693
 30
0.0
  0
VERTEX
  8
CIRCUIT
 10
67.1716
 20
7.1716
 30
0.0
  0
VERTEX
  8
CIRCUIT
 10
68.4693
 20
6.3045
 30
0.0
  0
VERTEX
  8
CIRCUIT
 10
70.0000
 20
6.0000
 30
0.0
  0
SEQEND
  0
LINE
  8
CIRCUIT
 10
70.0000
 20
6.0000
 30
0.0
 11
70.0000
 21
0.0000
 31
0.0
  0
TEXT
  8
LABELS
 10
73.0000
 20
10.0000
 30
0.0
 40
1.8000
  1
4.97  0.1 \, V
  0
LINE
  8
CIRCUIT
 10
70.0000
 20
0.0000
 30
0.0
 11
25.0000
 21
0.0000
 31
0.0
  0
ENDSEC
  0
EOF