  0
SECTION
  2
HEADER
  9
$ACADVER
  1
AC1009
  0
ENDSEC
  0
SECTION
  2
TABLES
  0
TABLE
  2
LAYER
 70
3
  0
LAYER
  2
CIRCUIT
 70
0
 62
7
  6
CONTINUOUS
  0
LAYER
  2
LABELS
 70
0
 62
3
  6
CONTINUOUS
  0
LAYER
  2
CURRENT
 70
0
 62
4
  6
CONTINUOUS
  0
ENDTAB
  0
ENDSEC
  0
SECTION
  2
ENTITIES
  0
LINE
  8
CIRCUIT
 10
0.0000
 20
0.0000
 30
0.0
 11
0.0000
 21
7.6000
 31
0.0
  0
LINE
  8
CIRCUIT
 10
4.0000
 20
7.6000
 30
0.0
 11
-4.0000
 21
7.6000
 31
0.0
  0
LINE
  8
CIRCUIT
 10
2.4000
 20
10.0000
 30
0.0
 11
-2.4000
 21
10.0000
 31
0.0
  0
LINE
  8
CIRCUIT
 10
0.0000
 20
10.0000
 30
0.0
 11
0.0000
 21
20.0000
 31
0.0
  0
TEXT
  8
LABELS
 10
-3.0000
 20
10.0000
 30
0.0
 40
1.8000
  1
10  0.1 \, V
  0
TEXT
  8
CURRENT
 10
1.5000
 20
10.0000
 30
0.0
 40
1.5000
  1
0.07  0.01 \, A
  0
LINE
  8
CIRCUIT
 10
0.0000
 20
20.0000
 30
0.0
 11
4.0000
 21
20.0000
 31
0.0
  0
POLYLINE
  8
CIRCUIT
 66
1
 10
0.0
 20
0.0
 30
0.0
  0
VERTEX
  8
CIRCUIT
 10
5.0000
 20
23.0000
 30
0.0
  0
VERTEX
  8
CIRCUIT
 10
7.0000
 20
17.0000
 30
0.0
  0
VERTEX
  8
CIRCUIT
 10
9.0000
 20
23.0000
 30
0.0
  0
VERTEX
  8
CIRCUIT
 10
11.0000
 20
17.0000
 30
0.0
  0
VERTEX
  8
CIRCUIT
 10
13.0000
 20
23.0000
 30
0.0
  0
VERTEX
  8
CIRCUIT
 10
15.0000
 20
17.0000
 30
0.0
  0
SEQEND
  0
LINE
  8
CIRCUIT
 10
16.0000
 20
20.0000
 30
0.0
 11
20.0000
 21
20.0000
 31
0.0
  0
TEXT
  8
LABELS
 10
10.0000
 20
23.0000
 30
0.0
 40
1.8000
  1
33\,
  0
LINE
  8
CIRCUIT
 10
20.0000
 20
20.0000
 30
0.0
 11
25.0000
 21
20.0000
 31
0.0
  0
LINE
  8
CIRCUIT
 10
25.0000
 20
20.0000
 30
0.0
 11
25.0000
 21
16.0000
 31
0.0
  0
POLYLINE
  8
CIRCUIT
 66
1
 10
0.0
 20
0.0
 30
0.0
  0
VERTEX
  8
CIRCUIT
 10
28.0000
 20
15.0000
 30
0.0
  0
VERTEX
  8
CIRCUIT
 10
22.0000
 20
13.0000
 30
0.0
  0
VERTEX
  8
CIRCUIT
 10
28.0000
 20
11.0000
 30
0.0
  0
VERTEX
  8
CIRCUIT
 10
22.0000
 20
9.0000
 30
0.0
  0
VERTEX
  8
CIRCUIT
 10
28.0000
 20
7.0000
 30
0.0
  0
VERTEX
  8
CIRCUIT
 10
22.0000
 20
5.0000
 30
0.0
  0
SEQEND
  0
LINE
  8
CIRCUIT
 10
25.0000
 20
4.0000
 30
0.0
 11
25.0000
 21
0.0000
 31
0.0
  0
TEXT
  8
LABELS
 10
28.0000
 20
10.0000
 30
0.0
 40
1.8000
  1
100\,
  0
LINE
  8
CIRCUIT
 10
25.0000
 20
0.0000
 30
0.0
 11
0.0000
 21
0.0000
 31
0.0
  0
LINE
  8
CIRCUIT
 10
0.0000
 20
20.0000
 30
0.0
 11
0.0000
 21
35.0000
 31
0.0
  0
LINE
  8
CIRCUIT
 10
0.0000
 20
35.0000
 30
0.0
 11
7.5000
 21
35.0000
 31
0.0
  0
POLYLINE
  8
CIRCUIT
 66
1
 10
0.0
 20
0.0
 30
0.0
  0
VERTEX
  8
CIRCUIT
 10
17.5000
 20
35.0000
 30
0.0
  0
VERTEX
  8
CIRCUIT
 10
17.1194
 20
36.9134
 30
0.0
  0
VERTEX
  8
CIRCUIT
 10
16.0355
 20
38.5355
 30
0.0
  0
VERTEX
  8
CIRCUIT
 10
14.4134
 20
39.6194
 30
0.0
  0
VERTEX
  8
CIRCUIT
 10
12.5000
 20
40.0000
 30
0.0
  0
VERTEX
  8
CIRCUIT
 10
10.5866
 20
39.6194
 30
0.0
  0
VERTEX
  8
CIRCUIT
 10
8.9645
 20
38.5355
 30
0.0
  0
VERTEX
  8
CIRCUIT
 10
7.8806
 20
36.9134
 30
0.0
  0
VERTEX
  8
CIRCUIT
 10
7.5000
 20
35.0000
 30
0.0
  0
VERTEX
  8
CIRCUIT
 10
7.8806
 20
33.0866
 30
0.0
  0
VERTEX
  8
CIRCUIT
 10
8.9645
 20
31.4645
 30
0.0
  0
VERTEX
  8
CIRCUIT
 10
10.5866
 20
30.3806
 30
0.0
  0
VERTEX
  8
CIRCUIT
 10
12.5000
 20
30.0000
 30
0.0
  0
VERTEX
  8
CIRCUIT
 10
14.4134
 20
30.3806
 30
0.0
  0
VERTEX
  8
CIRCUIT
 10
16.0355
 20
31.4645
 30
0.0
  0
VERTEX
  8
CIRCUIT
 10
17.1194
 20
33.0866
 30
0.0
  0
VERTEX
  8
CIRCUIT
 10
17.5000
 20
35.0000
 30
0.0
  0
SEQEND
  0
LINE
  8
CIRCUIT
 10
17.5000
 20
35.0000
 30
0.0
 11
25.0000
 21
35.0000
 31
0.0
  0
TEXT
  8
LABELS
 10
12.5000
 20
38.0000
 30
0.0
 40
1.8000
  1
2.49  0.01 \, V
  0
LINE
  8
CIRCUIT
 10
25.0000
 20
35.0000
 30
0.0
 11
25.0000
 21
20.0000
 31
0.0
  0
LINE
  8
CIRCUIT
 10
25.0000
 20
20.0000
 30
0.0
 11
40.0000
 21
25.0000
 31
0.0
  0
LINE
  8
CIRCUIT
 10
40.0000
 20
25.0000
 30
0.0
 11
43.0000
 21
20.5000
 31
0.0
  0
POLYLINE
  8
CIRCUIT
 66
1
 10
0.0
 20
0.0
 30
0.0
  0
VERTEX
  8
CIRCUIT
 10
47.0000
 20
14.5000
 30
0.0
  0
VERTEX
  8
CIRCUIT
 10
47.9958
 20
15.4937
 30
0.0
  0
VERTEX
  8
CIRCUIT
 10
48.5355
 20
16.7929
 30
0.0
  0
VERTEX
  8
CIRCUIT
 10
48.5370
 20
18.1997
 30
0.0
  0
VERTEX
  8
CIRCUIT
 10
48.0000
 20
19.5000
 30
0.0
  0
VERTEX
  8
CIRCUIT
 10
47.0063
 20
20.4958
 30
0.0
  0
VERTEX
  8
CIRCUIT
 10
45.7071
 20
21.0355
 30
0.0
  0
VERTEX
  8
CIRCUIT
 10
44.3003
 20
21.0370
 30
0.0
  0
VERTEX
  8
CIRCUIT
 10
43.0000
 20
20.5000
 30
0.0
  0
VERTEX
  8
CIRCUIT
 10
42.0042
 20
19.5063
 30
0.0
  0
VERTEX
  8
CIRCUIT
 10
41.4645
 20
18.2071
 30
0.0
  0
VERTEX
  8
CIRCUIT
 10
41.4630
 20
16.8003
 30
0.0
  0
VERTEX
  8
CIRCUIT
 10
42.0000
 20
15.5000
 30
0.0
  0
VERTEX
  8
CIRCUIT
 10
42.9937
 20
14.5042
 30
0.0
  0
VERTEX
  8
CIRCUIT
 10
44.2929
 20
13.9645
 30
0.0
  0
VERTEX
  8
CIRCUIT
 10
45.6997
 20
13.9630
 30
0.0
  0
VERTEX
  8
CIRCUIT
 10
47.0000
 20
14.5000
 30
0.0
  0
SEQEND
  0
LINE
  8
CIRCUIT
 10
47.0000
 20
14.5000
 30
0.0
 11
50.0000
 21
10.0000
 31
0.0
  0
TEXT
  8
LABELS
 10
47.4962
 20
19.1641
 30
0.0
 40
1.8000
  1
7.62  0.01 \, V
  0
LINE
  8
CIRCUIT
 10
50.0000
 20
10.0000
 30
0.0
 11
25.0000
 21
-0.0000
 31
0.0
  0
ENDSEC
  0
EOF